<?xml version="1.0" encoding="UTF-8"?>
<svg xmlns="http://www.w3.org/2000/svg" xmlns:xlink="http://www.w3.org/1999/xlink" width="720" height="432" viewBox="0 0 720 432">
<defs>
<g>
<g id="glyph-0-0">
<path d="M 0.667969 -3.480469 L 1.078125 -3.480469 C 1.109375 -2.953125 1.261719 -2.585938 1.542969 -2.378906 C 1.828125 -2.171875 2.273438 -2.066406 2.890625 -2.066406 L 5.925781 -2.066406 L 5.902344 -2.8125 C 4.722656 -3.050781 3.648438 -3.703125 2.679688 -4.777344 C 1.707031 -5.855469 1.222656 -7.210938 1.222656 -8.847656 C 1.222656 -10.664062 1.898438 -12.210938 3.25 -13.492188 C 4.601562 -14.773438 6.367188 -15.414062 8.546875 -15.414062 C 10.660156 -15.414062 12.386719 -14.808594 13.726562 -13.597656 C 15.066406 -12.386719 15.738281 -10.835938 15.738281 -8.945312 C 15.738281 -7.414062 15.320312 -6.109375 14.488281 -5.039062 C 13.652344 -3.96875 12.527344 -3.226562 11.101562 -2.8125 L 10.992188 -2.066406 L 14.082031 -2.066406 C 14.785156 -2.066406 15.25 -2.199219 15.476562 -2.46875 C 15.703125 -2.734375 15.824219 -3.070312 15.839844 -3.480469 L 16.25 -3.480469 L 16.25 0 L 10.023438 0 L 10.3125 -3.355469 C 12.226562 -3.957031 13.179688 -5.722656 13.179688 -8.65625 C 13.179688 -10.578125 12.714844 -12.046875 11.777344 -13.070312 C 10.839844 -14.09375 9.738281 -14.605469 8.480469 -14.605469 C 7.140625 -14.605469 6.03125 -14.0625 5.152344 -12.976562 C 4.273438 -11.890625 3.835938 -10.503906 3.835938 -8.8125 C 3.835938 -7.589844 4.03125 -6.476562 4.421875 -5.472656 C 4.816406 -4.46875 5.566406 -3.765625 6.679688 -3.355469 L 6.890625 0 L 0.667969 0 Z M 0.667969 -3.480469 "/>
</g>
<g id="glyph-1-0">
<path d="M 10.261719 -13.488281 L 9.257812 -2.519531 C 9.207031 -2.007812 9.179688 -1.667969 9.179688 -1.507812 C 9.179688 -1.25 9.230469 -1.050781 9.328125 -0.914062 C 9.449219 -0.726562 9.617188 -0.585938 9.828125 -0.496094 C 10.039062 -0.40625 10.394531 -0.359375 10.890625 -0.359375 L 10.785156 0 L 5.59375 0 L 5.699219 -0.359375 L 5.921875 -0.359375 C 6.34375 -0.359375 6.6875 -0.449219 6.953125 -0.632812 C 7.140625 -0.753906 7.289062 -0.960938 7.390625 -1.246094 C 7.460938 -1.445312 7.53125 -1.917969 7.59375 -2.664062 L 7.75 -4.335938 L 3.976562 -4.335938 L 2.636719 -2.519531 C 2.332031 -2.109375 2.140625 -1.816406 2.0625 -1.640625 C 1.984375 -1.460938 1.945312 -1.292969 1.945312 -1.136719 C 1.945312 -0.929688 2.027344 -0.753906 2.199219 -0.601562 C 2.367188 -0.453125 2.644531 -0.371094 3.035156 -0.359375 L 2.925781 0 L -0.972656 0 L -0.867188 -0.359375 C -0.386719 -0.378906 0.0390625 -0.539062 0.402344 -0.839844 C 0.769531 -1.144531 1.316406 -1.785156 2.042969 -2.773438 L 9.917969 -13.488281 L 10.261719 -13.488281 M 8.335938 -10.25 L 4.511719 -5.046875 L 7.828125 -5.046875 Z M 8.335938 -10.25 "/>
</g>
<g id="glyph-2-0">
<path d="M 10.992188 -14.453125 L 9.917969 -2.699219 C 9.863281 -2.148438 9.835938 -1.789062 9.835938 -1.613281 C 9.835938 -1.335938 9.886719 -1.125 9.992188 -0.980469 C 10.125 -0.777344 10.304688 -0.628906 10.527344 -0.53125 C 10.753906 -0.433594 11.136719 -0.386719 11.671875 -0.386719 L 11.554688 0 L 5.992188 0 L 6.105469 -0.386719 L 6.34375 -0.386719 C 6.796875 -0.386719 7.164062 -0.484375 7.449219 -0.675781 C 7.652344 -0.808594 7.808594 -1.027344 7.917969 -1.332031 C 7.996094 -1.550781 8.066406 -2.054688 8.136719 -2.855469 L 8.304688 -4.648438 L 4.261719 -4.648438 L 2.824219 -2.699219 C 2.496094 -2.261719 2.292969 -1.945312 2.207031 -1.753906 C 2.125 -1.566406 2.082031 -1.386719 2.082031 -1.21875 C 2.082031 -0.996094 2.175781 -0.804688 2.355469 -0.644531 C 2.535156 -0.484375 2.835938 -0.398438 3.25 -0.386719 L 3.136719 0 L -1.042969 0 L -0.925781 -0.386719 C -0.414062 -0.40625 0.0390625 -0.578125 0.433594 -0.902344 C 0.824219 -1.222656 1.410156 -1.914062 2.1875 -2.96875 L 10.628906 -14.453125 L 10.992188 -14.453125 M 8.929688 -10.980469 L 4.835938 -5.40625 L 8.386719 -5.40625 Z M 8.929688 -10.980469 "/>
</g>
<g id="glyph-2-1">
<path d="M 6.386719 -10.597656 C 6.386719 -10.382812 6.332031 -10.1875 6.21875 -10.011719 C 6.089844 -9.820312 5.921875 -9.722656 5.71875 -9.722656 C 5.414062 -9.722656 5.261719 -9.867188 5.261719 -10.160156 C 5.261719 -10.3125 5.339844 -10.460938 5.492188 -10.601562 C 5.644531 -10.746094 5.71875 -10.859375 5.71875 -10.949219 C 5.71875 -11.179688 5.507812 -11.296875 5.085938 -11.296875 C 4.183594 -11.296875 3.433594 -10.742188 2.84375 -9.636719 C 2.503906 -9 2.335938 -8.355469 2.335938 -7.710938 C 2.335938 -7.292969 2.457031 -6.960938 2.699219 -6.710938 C 2.941406 -6.460938 3.273438 -6.335938 3.6875 -6.335938 C 4.335938 -6.335938 5.003906 -6.707031 5.699219 -7.449219 L 5.875 -7.285156 C 5.035156 -6.277344 4.132812 -5.773438 3.167969 -5.773438 C 2.589844 -5.773438 2.132812 -5.9375 1.792969 -6.261719 C 1.453125 -6.589844 1.28125 -7.039062 1.28125 -7.617188 C 1.28125 -8.277344 1.472656 -8.917969 1.855469 -9.542969 C 2.214844 -10.148438 2.691406 -10.636719 3.277344 -11.011719 C 3.863281 -11.390625 4.449219 -11.578125 5.03125 -11.578125 C 5.9375 -11.578125 6.386719 -11.25 6.386719 -10.597656 Z M 6.386719 -10.597656 "/>
</g>
</g>
</defs>
<rect x="-72" y="-43.2" width="864" height="518.4" fill="rgb(100%, 100%, 100%)" fill-opacity="1"/>
<path fill-rule="nonzero" fill="rgb(94.117647%, 74.901961%, 54.117647%)" fill-opacity="1" d="M 36 419.292969 L 684 419.292969 L 684 12.703125 L 36 12.703125 Z M 36 419.292969 "/>
<path fill-rule="nonzero" fill="rgb(100%, 100%, 100%)" fill-opacity="1" d="M 360 63.53125 L 362.4375 63.550781 L 364.878906 63.613281 L 367.316406 63.722656 L 369.75 63.871094 L 372.179688 64.0625 L 374.609375 64.296875 L 377.03125 64.570312 L 379.453125 64.890625 L 381.863281 65.25 L 384.269531 65.652344 L 386.667969 66.097656 L 389.058594 66.582031 L 391.441406 67.113281 L 393.8125 67.679688 L 396.171875 68.292969 L 398.523438 68.945312 L 400.863281 69.636719 L 403.191406 70.371094 L 405.503906 71.144531 L 407.800781 71.957031 L 410.085938 72.8125 L 412.355469 73.707031 L 414.609375 74.640625 L 416.847656 75.613281 L 419.066406 76.625 L 421.269531 77.675781 L 423.453125 78.761719 L 425.617188 79.890625 L 427.757812 81.054688 L 429.882812 82.253906 L 431.984375 83.492188 L 434.0625 84.765625 L 436.121094 86.078125 L 438.15625 87.425781 L 440.164062 88.804688 L 442.152344 90.222656 L 444.113281 91.671875 L 446.046875 93.15625 L 447.957031 94.675781 L 449.839844 96.226562 L 451.695312 97.8125 L 453.519531 99.429688 L 455.320312 101.078125 L 457.089844 102.753906 L 458.828125 104.464844 L 460.539062 106.207031 L 462.21875 107.976562 L 463.867188 109.773438 L 465.480469 111.601562 L 467.066406 113.457031 L 468.617188 115.335938 L 470.136719 117.246094 L 471.621094 119.179688 L 473.070312 121.140625 L 474.488281 123.128906 L 475.871094 125.140625 L 477.214844 127.171875 L 478.527344 129.230469 L 479.800781 131.308594 L 481.039062 133.410156 L 482.242188 135.535156 L 483.40625 137.679688 L 484.53125 139.84375 L 485.621094 142.023438 L 486.667969 144.226562 L 487.679688 146.445312 L 488.652344 148.683594 L 489.585938 150.9375 L 490.480469 153.207031 L 491.335938 155.492188 L 492.148438 157.792969 L 492.925781 160.105469 L 493.65625 162.429688 L 494.351562 164.769531 L 495.003906 167.121094 L 495.613281 169.480469 L 496.183594 171.855469 L 496.710938 174.234375 L 497.195312 176.625 L 497.640625 179.023438 L 498.042969 181.429688 L 498.40625 183.84375 L 498.722656 186.261719 L 499 188.683594 L 499.234375 191.113281 L 499.425781 193.542969 L 499.574219 195.980469 L 499.679688 198.417969 L 499.742188 200.855469 L 499.765625 203.292969 L 499.742188 205.734375 L 499.679688 208.171875 L 499.574219 210.609375 L 499.425781 213.042969 L 499.234375 215.476562 L 499 217.902344 L 498.722656 220.328125 L 498.40625 222.746094 L 498.042969 225.15625 L 497.640625 227.5625 L 497.195312 229.960938 L 496.710938 232.351562 L 496.183594 234.734375 L 495.613281 237.105469 L 495.003906 239.46875 L 494.351562 241.820312 L 493.65625 244.15625 L 492.925781 246.484375 L 492.148438 248.796875 L 491.335938 251.097656 L 490.480469 253.382812 L 489.585938 255.652344 L 488.652344 257.90625 L 487.679688 260.140625 L 486.667969 262.359375 L 485.621094 264.5625 L 484.53125 266.746094 L 483.40625 268.910156 L 482.242188 271.054688 L 481.039062 273.175781 L 479.800781 275.277344 L 478.527344 277.359375 L 477.214844 279.414062 L 475.871094 281.449219 L 474.488281 283.460938 L 473.070312 285.445312 L 471.621094 287.40625 L 470.136719 289.34375 L 468.617188 291.25 L 467.066406 293.132812 L 465.480469 294.988281 L 463.867188 296.816406 L 462.21875 298.613281 L 460.539062 300.382812 L 458.828125 302.121094 L 457.089844 303.832031 L 455.320312 305.511719 L 453.519531 307.160156 L 451.695312 308.777344 L 449.839844 310.359375 L 447.957031 311.910156 L 446.046875 313.429688 L 444.113281 314.914062 L 442.152344 316.367188 L 440.164062 317.78125 L 438.15625 319.164062 L 436.121094 320.511719 L 434.0625 321.820312 L 431.984375 323.097656 L 429.882812 324.332031 L 427.757812 325.535156 L 425.617188 326.699219 L 423.453125 327.824219 L 421.269531 328.914062 L 419.066406 329.964844 L 416.847656 330.976562 L 414.609375 331.949219 L 412.355469 332.882812 L 410.085938 333.777344 L 407.800781 334.628906 L 405.503906 335.445312 L 403.191406 336.21875 L 400.863281 336.953125 L 398.523438 337.644531 L 396.171875 338.296875 L 393.8125 338.90625 L 391.441406 339.476562 L 389.058594 340.003906 L 386.667969 340.492188 L 384.269531 340.933594 L 381.863281 341.339844 L 379.453125 341.699219 L 377.03125 342.015625 L 374.609375 342.292969 L 372.179688 342.527344 L 369.75 342.71875 L 367.316406 342.867188 L 364.878906 342.972656 L 362.4375 343.039062 L 360 343.058594 L 357.5625 343.039062 L 355.121094 342.972656 L 352.683594 342.867188 L 350.25 342.71875 L 347.820312 342.527344 L 345.390625 342.292969 L 342.96875 342.015625 L 340.546875 341.699219 L 338.136719 341.339844 L 335.730469 340.933594 L 333.332031 340.492188 L 330.941406 340.003906 L 328.558594 339.476562 L 326.1875 338.90625 L 323.828125 338.296875 L 321.476562 337.644531 L 319.136719 336.953125 L 316.808594 336.21875 L 314.496094 335.445312 L 312.199219 334.628906 L 309.914062 333.777344 L 307.644531 332.882812 L 305.390625 331.949219 L 303.152344 330.976562 L 300.933594 329.964844 L 298.730469 328.914062 L 296.546875 327.824219 L 294.382812 326.699219 L 292.242188 325.535156 L 290.117188 324.332031 L 288.015625 323.097656 L 285.9375 321.820312 L 283.878906 320.511719 L 281.84375 319.164062 L 279.835938 317.78125 L 277.847656 316.367188 L 275.886719 314.914062 L 273.953125 313.429688 L 272.042969 311.910156 L 270.160156 310.359375 L 268.304688 308.777344 L 266.480469 307.160156 L 264.679688 305.511719 L 262.910156 303.832031 L 261.171875 302.121094 L 259.460938 300.382812 L 257.78125 298.613281 L 256.132812 296.816406 L 254.519531 294.988281 L 252.933594 293.132812 L 251.382812 291.25 L 249.863281 289.34375 L 248.378906 287.40625 L 246.929688 285.445312 L 245.511719 283.460938 L 244.128906 281.449219 L 242.785156 279.414062 L 241.472656 277.359375 L 240.199219 275.277344 L 238.960938 273.175781 L 237.757812 271.054688 L 236.59375 268.910156 L 235.46875 266.746094 L 234.378906 264.5625 L 233.332031 262.359375 L 232.320312 260.140625 L 231.347656 257.90625 L 230.414062 255.652344 L 229.519531 253.382812 L 228.664062 251.097656 L 227.851562 248.796875 L 227.074219 246.484375 L 226.34375 244.15625 L 225.648438 241.820312 L 224.996094 239.46875 L 224.386719 237.105469 L 223.816406 234.734375 L 223.289062 232.351562 L 222.804688 229.960938 L 222.359375 227.5625 L 221.957031 225.15625 L 221.59375 222.746094 L 221.277344 220.328125 L 221 217.902344 L 220.765625 215.476562 L 220.574219 213.042969 L 220.425781 210.609375 L 220.320312 208.171875 L 220.257812 205.734375 L 220.234375 203.292969 L 220.257812 200.855469 L 220.320312 198.417969 L 220.425781 195.980469 L 220.574219 193.542969 L 220.765625 191.113281 L 221 188.683594 L 221.277344 186.261719 L 221.59375 183.84375 L 221.957031 181.429688 L 222.359375 179.023438 L 222.804688 176.625 L 223.289062 174.234375 L 223.816406 171.855469 L 224.386719 169.480469 L 224.996094 167.121094 L 225.648438 164.769531 L 226.34375 162.429688 L 227.074219 160.105469 L 227.851562 157.792969 L 228.664062 155.492188 L 229.519531 153.207031 L 230.414062 150.9375 L 231.347656 148.683594 L 232.320312 146.445312 L 233.332031 144.226562 L 234.378906 142.023438 L 235.46875 139.84375 L 236.59375 137.679688 L 237.757812 135.535156 L 238.960938 133.410156 L 240.199219 131.308594 L 241.472656 129.230469 L 242.785156 127.171875 L 244.128906 125.140625 L 245.511719 123.128906 L 246.929688 121.140625 L 248.378906 119.179688 L 249.863281 117.246094 L 251.382812 115.335938 L 252.933594 113.457031 L 254.519531 111.601562 L 256.132812 109.773438 L 257.78125 107.976562 L 259.460938 106.207031 L 261.171875 104.464844 L 262.910156 102.753906 L 264.679688 101.078125 L 266.480469 99.429688 L 268.304688 97.8125 L 270.160156 96.226562 L 272.042969 94.675781 L 273.953125 93.15625 L 275.886719 91.671875 L 277.847656 90.222656 L 279.835938 88.804688 L 281.84375 87.425781 L 283.878906 86.078125 L 285.9375 84.765625 L 288.015625 83.492188 L 290.117188 82.253906 L 292.242188 81.054688 L 294.382812 79.890625 L 296.546875 78.761719 L 298.730469 77.675781 L 300.933594 76.625 L 303.152344 75.613281 L 305.390625 74.640625 L 307.644531 73.707031 L 309.914062 72.8125 L 312.199219 71.957031 L 314.496094 71.144531 L 316.808594 70.371094 L 319.136719 69.636719 L 321.476562 68.945312 L 323.828125 68.292969 L 326.1875 67.679688 L 328.558594 67.113281 L 330.941406 66.582031 L 333.332031 66.097656 L 335.730469 65.652344 L 338.136719 65.25 L 340.546875 64.890625 L 342.96875 64.570312 L 345.390625 64.296875 L 347.820312 64.0625 L 350.25 63.871094 L 352.683594 63.722656 L 355.121094 63.613281 L 357.5625 63.550781 Z M 360 63.53125 "/>
<path fill="none" stroke-width="3.414331" stroke-linecap="butt" stroke-linejoin="miter" stroke="rgb(0%, 0%, 0%)" stroke-opacity="1" stroke-miterlimit="10" d="M 36 419.292969 L 684 419.292969 L 684 12.703125 L 36 12.703125 Z M 36 419.292969 "/>
<path fill="none" stroke-width="2.987539" stroke-linecap="round" stroke-linejoin="round" stroke="rgb(0%, 0%, 0%)" stroke-opacity="1" stroke-miterlimit="10" d="M 360 63.53125 L 362.4375 63.550781 L 364.878906 63.613281 L 367.316406 63.722656 L 369.75 63.871094 L 372.179688 64.0625 L 374.609375 64.296875 L 377.03125 64.570312 L 379.453125 64.890625 L 381.863281 65.25 L 384.269531 65.652344 L 386.667969 66.097656 L 389.058594 66.582031 L 391.441406 67.113281 L 393.8125 67.679688 L 396.171875 68.292969 L 398.523438 68.945312 L 400.863281 69.636719 L 403.191406 70.371094 L 405.503906 71.144531 L 407.800781 71.957031 L 410.085938 72.8125 L 412.355469 73.707031 L 414.609375 74.640625 L 416.847656 75.613281 L 419.066406 76.625 L 421.269531 77.675781 L 423.453125 78.761719 L 425.617188 79.890625 L 427.757812 81.054688 L 429.882812 82.253906 L 431.984375 83.492188 L 434.0625 84.765625 L 436.121094 86.078125 L 438.15625 87.425781 L 440.164062 88.804688 L 442.152344 90.222656 L 444.113281 91.671875 L 446.046875 93.15625 L 447.957031 94.675781 L 449.839844 96.226562 L 451.695312 97.8125 L 453.519531 99.429688 L 455.320312 101.078125 L 457.089844 102.753906 L 458.828125 104.464844 L 460.539062 106.207031 L 462.21875 107.976562 L 463.867188 109.773438 L 465.480469 111.601562 L 467.066406 113.457031 L 468.617188 115.335938 L 470.136719 117.246094 L 471.621094 119.179688 L 473.070312 121.140625 L 474.488281 123.128906 L 475.871094 125.140625 L 477.214844 127.171875 L 478.527344 129.230469 L 479.800781 131.308594 L 481.039062 133.410156 L 482.242188 135.535156 L 483.40625 137.679688 L 484.53125 139.84375 L 485.621094 142.023438 L 486.667969 144.226562 L 487.679688 146.445312 L 488.652344 148.683594 L 489.585938 150.9375 L 490.480469 153.207031 L 491.335938 155.492188 L 492.148438 157.792969 L 492.925781 160.105469 L 493.65625 162.429688 L 494.351562 164.769531 L 495.003906 167.121094 L 495.613281 169.480469 L 496.183594 171.855469 L 496.710938 174.234375 L 497.195312 176.625 L 497.640625 179.023438 L 498.042969 181.429688 L 498.40625 183.84375 L 498.722656 186.261719 L 499 188.683594 L 499.234375 191.113281 L 499.425781 193.542969 L 499.574219 195.980469 L 499.679688 198.417969 L 499.742188 200.855469 L 499.765625 203.292969 L 499.742188 205.734375 L 499.679688 208.171875 L 499.574219 210.609375 L 499.425781 213.042969 L 499.234375 215.476562 L 499 217.902344 L 498.722656 220.328125 L 498.40625 222.746094 L 498.042969 225.15625 L 497.640625 227.5625 L 497.195312 229.960938 L 496.710938 232.351562 L 496.183594 234.734375 L 495.613281 237.105469 L 495.003906 239.46875 L 494.351562 241.820312 L 493.65625 244.15625 L 492.925781 246.484375 L 492.148438 248.796875 L 491.335938 251.097656 L 490.480469 253.382812 L 489.585938 255.652344 L 488.652344 257.90625 L 487.679688 260.140625 L 486.667969 262.359375 L 485.621094 264.5625 L 484.53125 266.746094 L 483.40625 268.910156 L 482.242188 271.054688 L 481.039062 273.175781 L 479.800781 275.277344 L 478.527344 277.359375 L 477.214844 279.414062 L 475.871094 281.449219 L 474.488281 283.460938 L 473.070312 285.445312 L 471.621094 287.40625 L 470.136719 289.34375 L 468.617188 291.25 L 467.066406 293.132812 L 465.480469 294.988281 L 463.867188 296.816406 L 462.21875 298.613281 L 460.539062 300.382812 L 458.828125 302.121094 L 457.089844 303.832031 L 455.320312 305.511719 L 453.519531 307.160156 L 451.695312 308.777344 L 449.839844 310.359375 L 447.957031 311.910156 L 446.046875 313.429688 L 444.113281 314.914062 L 442.152344 316.367188 L 440.164062 317.78125 L 438.15625 319.164062 L 436.121094 320.511719 L 434.0625 321.820312 L 431.984375 323.097656 L 429.882812 324.332031 L 427.757812 325.535156 L 425.617188 326.699219 L 423.453125 327.824219 L 421.269531 328.914062 L 419.066406 329.964844 L 416.847656 330.976562 L 414.609375 331.949219 L 412.355469 332.882812 L 410.085938 333.777344 L 407.800781 334.628906 L 405.503906 335.445312 L 403.191406 336.21875 L 400.863281 336.953125 L 398.523438 337.644531 L 396.171875 338.296875 L 393.8125 338.90625 L 391.441406 339.476562 L 389.058594 340.003906 L 386.667969 340.492188 L 384.269531 340.933594 L 381.863281 341.339844 L 379.453125 341.699219 L 377.03125 342.015625 L 374.609375 342.292969 L 372.179688 342.527344 L 369.75 342.71875 L 367.316406 342.867188 L 364.878906 342.972656 L 362.4375 343.039062 L 360 343.058594 L 357.5625 343.039062 L 355.121094 342.972656 L 352.683594 342.867188 L 350.25 342.71875 L 347.820312 342.527344 L 345.390625 342.292969 L 342.96875 342.015625 L 340.546875 341.699219 L 338.136719 341.339844 L 335.730469 340.933594 L 333.332031 340.492188 L 330.941406 340.003906 L 328.558594 339.476562 L 326.1875 338.90625 L 323.828125 338.296875 L 321.476562 337.644531 L 319.136719 336.953125 L 316.808594 336.21875 L 314.496094 335.445312 L 312.199219 334.628906 L 309.914062 333.777344 L 307.644531 332.882812 L 305.390625 331.949219 L 303.152344 330.976562 L 300.933594 329.964844 L 298.730469 328.914062 L 296.546875 327.824219 L 294.382812 326.699219 L 292.242188 325.535156 L 290.117188 324.332031 L 288.015625 323.097656 L 285.9375 321.820312 L 283.878906 320.511719 L 281.84375 319.164062 L 279.835938 317.78125 L 277.847656 316.367188 L 275.886719 314.914062 L 273.953125 313.429688 L 272.042969 311.910156 L 270.160156 310.359375 L 268.304688 308.777344 L 266.480469 307.160156 L 264.679688 305.511719 L 262.910156 303.832031 L 261.171875 302.121094 L 259.460938 300.382812 L 257.78125 298.613281 L 256.132812 296.816406 L 254.519531 294.988281 L 252.933594 293.132812 L 251.382812 291.25 L 249.863281 289.34375 L 248.378906 287.40625 L 246.929688 285.445312 L 245.511719 283.460938 L 244.128906 281.449219 L 242.785156 279.414062 L 241.472656 277.359375 L 240.199219 275.277344 L 238.960938 273.175781 L 237.757812 271.054688 L 236.59375 268.910156 L 235.46875 266.746094 L 234.378906 264.5625 L 233.332031 262.359375 L 232.320312 260.140625 L 231.347656 257.90625 L 230.414062 255.652344 L 229.519531 253.382812 L 228.664062 251.097656 L 227.851562 248.796875 L 227.074219 246.484375 L 226.34375 244.15625 L 225.648438 241.820312 L 224.996094 239.46875 L 224.386719 237.105469 L 223.816406 234.734375 L 223.289062 232.351562 L 222.804688 229.960938 L 222.359375 227.5625 L 221.957031 225.15625 L 221.59375 222.746094 L 221.277344 220.328125 L 221 217.902344 L 220.765625 215.476562 L 220.574219 213.042969 L 220.425781 210.609375 L 220.320312 208.171875 L 220.257812 205.734375 L 220.234375 203.292969 L 220.257812 200.855469 L 220.320312 198.417969 L 220.425781 195.980469 L 220.574219 193.542969 L 220.765625 191.113281 L 221 188.683594 L 221.277344 186.261719 L 221.59375 183.84375 L 221.957031 181.429688 L 222.359375 179.023438 L 222.804688 176.625 L 223.289062 174.234375 L 223.816406 171.855469 L 224.386719 169.480469 L 224.996094 167.121094 L 225.648438 164.769531 L 226.34375 162.429688 L 227.074219 160.105469 L 227.851562 157.792969 L 228.664062 155.492188 L 229.519531 153.207031 L 230.414062 150.9375 L 231.347656 148.683594 L 232.320312 146.445312 L 233.332031 144.226562 L 234.378906 142.023438 L 235.46875 139.84375 L 236.59375 137.679688 L 237.757812 135.535156 L 238.960938 133.410156 L 240.199219 131.308594 L 241.472656 129.230469 L 242.785156 127.171875 L 244.128906 125.140625 L 245.511719 123.128906 L 246.929688 121.140625 L 248.378906 119.179688 L 249.863281 117.246094 L 251.382812 115.335938 L 252.933594 113.457031 L 254.519531 111.601562 L 256.132812 109.773438 L 257.78125 107.976562 L 259.460938 106.207031 L 261.171875 104.464844 L 262.910156 102.753906 L 264.679688 101.078125 L 266.480469 99.429688 L 268.304688 97.8125 L 270.160156 96.226562 L 272.042969 94.675781 L 273.953125 93.15625 L 275.886719 91.671875 L 277.847656 90.222656 L 279.835938 88.804688 L 281.84375 87.425781 L 283.878906 86.078125 L 285.9375 84.765625 L 288.015625 83.492188 L 290.117188 82.253906 L 292.242188 81.054688 L 294.382812 79.890625 L 296.546875 78.761719 L 298.730469 77.675781 L 300.933594 76.625 L 303.152344 75.613281 L 305.390625 74.640625 L 307.644531 73.707031 L 309.914062 72.8125 L 312.199219 71.957031 L 314.496094 71.144531 L 316.808594 70.371094 L 319.136719 69.636719 L 321.476562 68.945312 L 323.828125 68.292969 L 326.1875 67.679688 L 328.558594 67.113281 L 330.941406 66.582031 L 333.332031 66.097656 L 335.730469 65.652344 L 338.136719 65.25 L 340.546875 64.890625 L 342.96875 64.570312 L 345.390625 64.296875 L 347.820312 64.0625 L 350.25 63.871094 L 352.683594 63.722656 L 355.121094 63.613281 L 357.5625 63.550781 Z M 360 63.53125 "/>
<g fill="rgb(0%, 0%, 0%)" fill-opacity="1">
<use xlink:href="#glyph-0-0" x="56.132812" y="49.328125"/>
</g>
<g fill="rgb(0%, 0%, 0%)" fill-opacity="1">
<use xlink:href="#glyph-1-0" x="353.917969" y="210.386719"/>
</g>
<g fill="rgb(81.176471%, 35.294118%, 0%)" fill-opacity="1">
<use xlink:href="#glyph-2-0" x="566.679688" y="83.800781"/>
<use xlink:href="#glyph-2-1" x="579.714745" y="83.800781"/>
</g>
</svg>
