<?xml version="1.0" encoding="UTF-8"?>
<svg xmlns="http://www.w3.org/2000/svg" xmlns:xlink="http://www.w3.org/1999/xlink" width="720" height="432" viewBox="0 0 720 432">
<defs>
<g>
<g id="glyph-0-0">
<path d="M 0.667969 -3.480469 L 1.078125 -3.480469 C 1.109375 -2.953125 1.261719 -2.585938 1.542969 -2.378906 C 1.828125 -2.171875 2.273438 -2.066406 2.890625 -2.066406 L 5.925781 -2.066406 L 5.902344 -2.8125 C 4.722656 -3.050781 3.648438 -3.703125 2.679688 -4.777344 C 1.707031 -5.855469 1.222656 -7.210938 1.222656 -8.847656 C 1.222656 -10.664062 1.898438 -12.210938 3.25 -13.492188 C 4.601562 -14.773438 6.367188 -15.414062 8.546875 -15.414062 C 10.660156 -15.414062 12.386719 -14.808594 13.726562 -13.597656 C 15.066406 -12.386719 15.738281 -10.835938 15.738281 -8.945312 C 15.738281 -7.414062 15.320312 -6.109375 14.488281 -5.039062 C 13.652344 -3.96875 12.527344 -3.226562 11.101562 -2.8125 L 10.992188 -2.066406 L 14.082031 -2.066406 C 14.785156 -2.066406 15.25 -2.199219 15.476562 -2.46875 C 15.703125 -2.734375 15.824219 -3.070312 15.839844 -3.480469 L 16.25 -3.480469 L 16.25 0 L 10.023438 0 L 10.3125 -3.355469 C 12.226562 -3.957031 13.179688 -5.722656 13.179688 -8.65625 C 13.179688 -10.578125 12.714844 -12.046875 11.777344 -13.070312 C 10.839844 -14.09375 9.738281 -14.605469 8.480469 -14.605469 C 7.140625 -14.605469 6.03125 -14.0625 5.152344 -12.976562 C 4.273438 -11.890625 3.835938 -10.503906 3.835938 -8.8125 C 3.835938 -7.589844 4.03125 -6.476562 4.421875 -5.472656 C 4.816406 -4.46875 5.566406 -3.765625 6.679688 -3.355469 L 6.890625 0 L 0.667969 0 Z M 0.667969 -3.480469 "/>
</g>
<g id="glyph-1-0">
<path d="M 10.261719 -13.488281 L 9.257812 -2.519531 C 9.207031 -2.007812 9.179688 -1.667969 9.179688 -1.507812 C 9.179688 -1.25 9.230469 -1.050781 9.328125 -0.914062 C 9.449219 -0.726562 9.617188 -0.585938 9.828125 -0.496094 C 10.039062 -0.40625 10.394531 -0.359375 10.890625 -0.359375 L 10.785156 0 L 5.59375 0 L 5.699219 -0.359375 L 5.921875 -0.359375 C 6.34375 -0.359375 6.6875 -0.449219 6.953125 -0.632812 C 7.140625 -0.753906 7.289062 -0.960938 7.390625 -1.246094 C 7.460938 -1.445312 7.53125 -1.917969 7.59375 -2.664062 L 7.75 -4.335938 L 3.976562 -4.335938 L 2.636719 -2.519531 C 2.332031 -2.109375 2.140625 -1.816406 2.0625 -1.640625 C 1.984375 -1.460938 1.945312 -1.292969 1.945312 -1.136719 C 1.945312 -0.929688 2.027344 -0.753906 2.199219 -0.601562 C 2.367188 -0.453125 2.644531 -0.371094 3.035156 -0.359375 L 2.925781 0 L -0.972656 0 L -0.867188 -0.359375 C -0.386719 -0.378906 0.0390625 -0.539062 0.402344 -0.839844 C 0.769531 -1.144531 1.316406 -1.785156 2.042969 -2.773438 L 9.917969 -13.488281 L 10.261719 -13.488281 M 8.335938 -10.25 L 4.511719 -5.046875 L 7.828125 -5.046875 Z M 8.335938 -10.25 "/>
</g>
<g id="glyph-1-1">
<path d="M 2.945312 -12.828125 L 3.082031 -13.1875 L 7.789062 -13.1875 C 8.582031 -13.1875 9.285156 -13.0625 9.90625 -12.816406 C 10.523438 -12.570312 10.988281 -12.226562 11.296875 -11.785156 C 11.605469 -11.347656 11.757812 -10.878906 11.757812 -10.386719 C 11.757812 -9.628906 11.484375 -8.941406 10.9375 -8.328125 C 10.386719 -7.71875 9.496094 -7.265625 8.257812 -6.972656 C 9.054688 -6.675781 9.640625 -6.277344 10.015625 -5.785156 C 10.394531 -5.292969 10.582031 -4.753906 10.582031 -4.164062 C 10.582031 -3.507812 10.414062 -2.882812 10.074219 -2.285156 C 9.738281 -1.6875 9.304688 -1.226562 8.777344 -0.894531 C 8.25 -0.5625 7.613281 -0.320312 6.867188 -0.164062 C 6.335938 -0.0546875 5.503906 0 4.375 0 L -0.457031 0 L -0.332031 -0.359375 C 0.175781 -0.371094 0.519531 -0.421875 0.699219 -0.503906 C 0.960938 -0.617188 1.144531 -0.761719 1.253906 -0.941406 C 1.410156 -1.191406 1.617188 -1.753906 1.875 -2.636719 L 4.238281 -10.621094 C 4.441406 -11.292969 4.542969 -11.765625 4.542969 -12.039062 C 4.542969 -12.28125 4.453125 -12.46875 4.273438 -12.609375 C 4.097656 -12.746094 3.757812 -12.816406 3.257812 -12.816406 C 3.148438 -12.816406 3.042969 -12.820312 2.945312 -12.828125 M 4.921875 -7.351562 C 5.34375 -7.339844 5.648438 -7.332031 5.835938 -7.332031 C 7.183594 -7.332031 8.1875 -7.625 8.84375 -8.210938 C 9.503906 -8.800781 9.832031 -9.535156 9.832031 -10.414062 C 9.832031 -11.082031 9.632812 -11.605469 9.230469 -11.976562 C 8.828125 -12.347656 8.183594 -12.535156 7.304688 -12.535156 C 7.070312 -12.535156 6.773438 -12.496094 6.410156 -12.417969 L 4.921875 -7.351562 M 3.003906 -0.855469 C 3.707031 -0.765625 4.253906 -0.71875 4.648438 -0.71875 C 5.660156 -0.71875 6.554688 -1.023438 7.335938 -1.632812 C 8.117188 -2.242188 8.507812 -3.070312 8.507812 -4.113281 C 8.507812 -4.910156 8.269531 -5.535156 7.785156 -5.980469 C 7.300781 -6.429688 6.523438 -6.652344 5.445312 -6.652344 C 5.238281 -6.652344 4.984375 -6.640625 4.6875 -6.621094 Z M 3.003906 -0.855469 "/>
</g>
<g id="glyph-2-0">
<path d="M 9.761719 -4.730469 L 4.292969 -4.730469 L 3.335938 -2.5 C 3.097656 -1.953125 2.980469 -1.542969 2.980469 -1.269531 C 2.980469 -1.054688 3.082031 -0.867188 3.289062 -0.703125 C 3.492188 -0.539062 3.933594 -0.433594 4.617188 -0.386719 L 4.617188 0 L 0.167969 0 L 0.167969 -0.386719 C 0.757812 -0.488281 1.140625 -0.625 1.3125 -0.792969 C 1.667969 -1.125 2.058594 -1.800781 2.492188 -2.824219 L 7.460938 -14.453125 L 7.824219 -14.453125 L 12.742188 -2.699219 C 13.140625 -1.753906 13.5 -1.140625 13.820312 -0.859375 C 14.144531 -0.578125 14.59375 -0.421875 15.171875 -0.386719 L 15.171875 0 L 9.597656 0 L 9.597656 -0.386719 C 10.160156 -0.414062 10.539062 -0.507812 10.738281 -0.667969 C 10.933594 -0.828125 11.035156 -1.019531 11.035156 -1.25 C 11.035156 -1.554688 10.894531 -2.039062 10.617188 -2.699219 L 9.761719 -4.730469 M 9.472656 -5.5 L 7.074219 -11.210938 L 4.617188 -5.5 Z M 9.472656 -5.5 "/>
</g>
<g id="glyph-2-1">
<path d="M 3.148438 0 L 2 0 L 2 -5.835938 C 2 -7.558594 2.019531 -8.648438 2.0625 -9.105469 C 2.144531 -9.933594 2.300781 -10.609375 2.523438 -11.136719 C 2.742188 -11.667969 3.097656 -12.1875 3.585938 -12.695312 C 4.070312 -13.207031 4.671875 -13.621094 5.390625 -13.941406 C 6.109375 -14.261719 6.875 -14.421875 7.679688 -14.421875 C 8.457031 -14.421875 9.199219 -14.269531 9.910156 -13.960938 C 10.617188 -13.65625 11.234375 -13.242188 11.753906 -12.71875 C 12.273438 -12.191406 12.644531 -11.636719 12.867188 -11.042969 C 13.089844 -10.453125 13.238281 -9.71875 13.304688 -8.835938 C 13.332031 -8.488281 13.347656 -7.488281 13.347656 -5.835938 L 13.347656 0 L 12.210938 0 L 12.210938 -5.898438 C 12.210938 -7.410156 12.191406 -8.386719 12.148438 -8.824219 C 12.074219 -9.597656 11.945312 -10.210938 11.769531 -10.664062 C 11.59375 -11.121094 11.3125 -11.546875 10.933594 -11.945312 C 10.558594 -12.34375 10.074219 -12.675781 9.488281 -12.929688 C 8.898438 -13.1875 8.292969 -13.316406 7.667969 -13.316406 C 7.15625 -13.316406 6.65625 -13.226562 6.171875 -13.050781 C 5.691406 -12.875 5.277344 -12.65625 4.933594 -12.394531 C 4.589844 -12.132812 4.3125 -11.867188 4.101562 -11.59375 C 3.886719 -11.316406 3.734375 -11.058594 3.636719 -10.816406 C 3.460938 -10.398438 3.335938 -9.890625 3.261719 -9.289062 C 3.183594 -8.6875 3.148438 -7.558594 3.148438 -5.898438 Z M 3.148438 0 "/>
</g>
<g id="glyph-2-2">
<path d="M 9.855469 -7.210938 C 10.835938 -7.003906 11.570312 -6.667969 12.054688 -6.210938 C 12.730469 -5.570312 13.066406 -4.789062 13.066406 -3.867188 C 13.066406 -3.164062 12.84375 -2.492188 12.398438 -1.847656 C 11.953125 -1.207031 11.34375 -0.738281 10.570312 -0.441406 C 9.796875 -0.148438 8.613281 0 7.023438 0 L 0.355469 0 L 0.355469 -0.386719 L 0.886719 -0.386719 C 1.476562 -0.386719 1.898438 -0.574219 2.15625 -0.949219 C 2.316406 -1.191406 2.398438 -1.707031 2.398438 -2.5 L 2.398438 -11.628906 C 2.398438 -12.503906 2.296875 -13.054688 2.09375 -13.285156 C 1.824219 -13.589844 1.421875 -13.742188 0.886719 -13.742188 L 0.355469 -13.742188 L 0.355469 -14.128906 L 6.460938 -14.128906 C 7.597656 -14.128906 8.511719 -14.046875 9.199219 -13.878906 C 10.242188 -13.628906 11.039062 -13.1875 11.585938 -12.550781 C 12.136719 -11.914062 12.410156 -11.183594 12.410156 -10.355469 C 12.410156 -9.648438 12.195312 -9.015625 11.765625 -8.457031 C 11.332031 -7.894531 10.699219 -7.480469 9.855469 -7.210938 M 4.398438 -7.773438 C 4.652344 -7.722656 4.949219 -7.6875 5.277344 -7.664062 C 5.609375 -7.640625 5.96875 -7.628906 6.367188 -7.628906 C 7.378906 -7.628906 8.144531 -7.738281 8.652344 -7.957031 C 9.164062 -8.175781 9.554688 -8.507812 9.824219 -8.960938 C 10.097656 -9.414062 10.230469 -9.90625 10.230469 -10.441406 C 10.230469 -11.265625 9.894531 -11.972656 9.222656 -12.554688 C 8.546875 -13.140625 7.566406 -13.429688 6.273438 -13.429688 C 5.578125 -13.429688 4.953125 -13.355469 4.398438 -13.203125 L 4.398438 -7.773438 M 4.398438 -1.019531 C 5.203125 -0.832031 6 -0.738281 6.785156 -0.738281 C 8.039062 -0.738281 9 -1.023438 9.660156 -1.589844 C 10.320312 -2.15625 10.648438 -2.855469 10.648438 -3.6875 C 10.648438 -4.238281 10.5 -4.765625 10.199219 -5.273438 C 9.902344 -5.78125 9.414062 -6.179688 8.742188 -6.46875 C 8.066406 -6.761719 7.234375 -6.910156 6.242188 -6.910156 C 5.8125 -6.910156 5.441406 -6.902344 5.136719 -6.886719 C 4.832031 -6.875 4.585938 -6.847656 4.398438 -6.816406 Z M 4.398438 -1.019531 "/>
</g>
<g id="glyph-3-0">
</g>
</g>
</defs>
<rect x="-72" y="-43.2" width="864" height="518.4" fill="rgb(100%, 100%, 100%)" fill-opacity="1"/>
<path fill="none" stroke-width="3.414331" stroke-linecap="butt" stroke-linejoin="miter" stroke="rgb(0%, 0%, 0%)" stroke-opacity="1" stroke-miterlimit="10" d="M 36 419.292969 L 684 419.292969 L 684 12.703125 L 36 12.703125 Z M 36 419.292969 "/>
<path fill-rule="evenodd" fill="rgb(94.117647%, 74.901961%, 54.117647%)" fill-opacity="1" d="M 347.976562 115.417969 L 349.074219 116.792969 L 350.15625 118.183594 L 351.21875 119.585938 L 352.261719 121 L 353.289062 122.429688 L 354.300781 123.871094 L 355.289062 125.324219 L 356.261719 126.792969 L 357.214844 128.269531 L 358.152344 129.761719 L 359.066406 131.265625 L 359.964844 132.777344 L 360.84375 134.300781 L 361.703125 135.839844 L 362.542969 137.386719 L 363.363281 138.941406 L 364.164062 140.507812 L 364.945312 142.085938 L 365.703125 143.671875 L 366.445312 145.269531 L 367.164062 146.875 L 367.867188 148.492188 L 368.546875 150.113281 L 369.207031 151.746094 L 369.84375 153.386719 L 370.460938 155.03125 L 371.058594 156.6875 L 371.636719 158.351562 L 372.191406 160.019531 L 372.726562 161.699219 L 373.238281 163.382812 L 373.730469 165.070312 L 374.199219 166.765625 L 374.648438 168.46875 L 375.078125 170.175781 L 375.484375 171.886719 L 375.867188 173.605469 L 376.230469 175.328125 L 376.574219 177.054688 L 376.894531 178.785156 L 377.191406 180.519531 L 377.464844 182.257812 L 377.71875 183.996094 L 377.953125 185.742188 L 378.164062 187.488281 L 378.351562 189.238281 L 378.515625 190.992188 L 378.660156 192.746094 L 378.78125 194.5 L 378.882812 196.257812 L 378.960938 198.015625 L 379.015625 199.773438 L 379.046875 201.535156 L 379.058594 203.292969 L 379.046875 205.054688 L 379.015625 206.8125 L 378.960938 208.574219 L 378.882812 210.332031 L 378.78125 212.085938 L 378.660156 213.84375 L 378.515625 215.597656 L 378.351562 217.347656 L 378.164062 219.097656 L 377.953125 220.847656 L 377.71875 222.589844 L 377.464844 224.332031 L 377.191406 226.070312 L 376.894531 227.804688 L 376.574219 229.535156 L 376.230469 231.261719 L 375.867188 232.984375 L 375.484375 234.699219 L 375.078125 236.414062 L 374.648438 238.121094 L 374.199219 239.820312 L 373.730469 241.519531 L 373.238281 243.207031 L 372.726562 244.890625 L 372.191406 246.566406 L 371.636719 248.238281 L 371.058594 249.898438 L 370.460938 251.554688 L 369.84375 253.203125 L 369.207031 254.84375 L 368.546875 256.476562 L 367.867188 258.097656 L 367.164062 259.710938 L 366.445312 261.316406 L 365.703125 262.914062 L 364.945312 264.5 L 364.164062 266.078125 L 363.363281 267.644531 L 362.542969 269.203125 L 361.703125 270.75 L 360.84375 272.285156 L 359.964844 273.808594 L 359.066406 275.324219 L 358.152344 276.828125 L 357.214844 278.316406 L 356.261719 279.796875 L 355.289062 281.261719 L 354.300781 282.71875 L 353.289062 284.160156 L 352.261719 285.589844 L 351.21875 287.003906 L 350.15625 288.40625 L 349.074219 289.796875 L 347.976562 291.171875 L 347.292969 292.003906 L 347.167969 291.855469 L 346.0625 290.484375 L 344.972656 289.101562 L 343.898438 287.707031 L 342.847656 286.296875 L 341.808594 284.875 L 340.792969 283.441406 L 339.792969 281.992188 L 338.808594 280.53125 L 337.847656 279.058594 L 336.902344 277.574219 L 335.976562 276.078125 L 335.070312 274.570312 L 334.179688 273.050781 L 333.3125 271.519531 L 332.464844 269.976562 L 331.632812 268.425781 L 330.824219 266.863281 L 330.03125 265.292969 L 329.261719 263.710938 L 328.511719 262.117188 L 327.78125 260.515625 L 327.070312 258.90625 L 326.378906 257.289062 L 325.710938 255.660156 L 325.0625 254.023438 L 324.433594 252.378906 L 323.824219 250.730469 L 323.238281 249.070312 L 322.671875 247.402344 L 322.128906 245.730469 L 321.605469 244.050781 L 321.101562 242.363281 L 320.621094 240.671875 L 320.160156 238.972656 L 319.722656 237.265625 L 319.304688 235.558594 L 318.910156 233.84375 L 318.535156 232.125 L 318.183594 230.398438 L 317.851562 228.671875 L 317.542969 226.9375 L 317.257812 225.203125 L 316.992188 223.460938 L 316.75 221.71875 L 316.527344 219.972656 L 316.328125 218.222656 L 316.152344 216.472656 L 315.996094 214.71875 L 315.863281 212.964844 L 315.753906 211.210938 L 315.664062 209.453125 L 315.597656 207.691406 L 315.554688 205.933594 L 315.53125 204.175781 L 315.53125 202.414062 L 315.554688 200.65625 L 315.597656 198.894531 L 315.664062 197.136719 L 315.753906 195.378906 L 315.863281 193.621094 L 315.996094 191.867188 L 316.152344 190.113281 L 316.328125 188.363281 L 316.527344 186.617188 L 316.75 184.871094 L 316.992188 183.125 L 317.257812 181.386719 L 317.542969 179.648438 L 317.851562 177.917969 L 318.183594 176.1875 L 318.535156 174.464844 L 318.910156 172.746094 L 319.304688 171.03125 L 319.722656 169.320312 L 320.160156 167.617188 L 320.621094 165.917969 L 321.101562 164.226562 L 321.605469 162.539062 L 322.128906 160.859375 L 322.671875 159.183594 L 323.238281 157.519531 L 323.824219 155.859375 L 324.433594 154.207031 L 325.0625 152.5625 L 325.710938 150.929688 L 326.378906 149.300781 L 327.070312 147.683594 L 327.78125 146.070312 L 328.511719 144.472656 L 329.261719 142.878906 L 330.03125 141.296875 L 330.824219 139.726562 L 331.632812 138.164062 L 332.464844 136.609375 L 333.3125 135.070312 L 334.179688 133.539062 L 335.070312 132.019531 L 335.976562 130.511719 L 336.902344 129.015625 L 337.847656 127.53125 L 338.808594 126.058594 L 339.792969 124.597656 L 340.792969 123.148438 L 341.808594 121.714844 L 342.847656 120.289062 L 343.898438 118.882812 L 344.972656 117.484375 L 346.0625 116.101562 L 347.167969 114.734375 L 347.292969 114.582031 Z M 347.976562 115.417969 "/>
<path fill="none" stroke-width="2.987539" stroke-linecap="round" stroke-linejoin="round" stroke="rgb(0%, 0%, 0%)" stroke-opacity="1" stroke-miterlimit="10" d="M 239.292969 63.53125 L 241.734375 63.550781 L 244.171875 63.613281 L 246.609375 63.722656 L 249.042969 63.871094 L 251.476562 64.0625 L 253.902344 64.296875 L 256.328125 64.570312 L 258.746094 64.890625 L 261.15625 65.25 L 263.5625 65.652344 L 265.960938 66.097656 L 268.351562 66.582031 L 270.734375 67.113281 L 273.105469 67.679688 L 275.46875 68.292969 L 277.820312 68.945312 L 280.15625 69.636719 L 282.484375 70.371094 L 284.796875 71.144531 L 287.097656 71.957031 L 289.382812 72.8125 L 291.652344 73.707031 L 293.90625 74.640625 L 296.140625 75.613281 L 298.359375 76.625 L 300.5625 77.675781 L 302.746094 78.761719 L 304.910156 79.890625 L 307.054688 81.054688 L 309.175781 82.253906 L 311.277344 83.492188 L 313.359375 84.765625 L 315.414062 86.078125 L 317.449219 87.425781 L 319.460938 88.804688 L 321.445312 90.222656 L 323.40625 91.671875 L 325.34375 93.15625 L 327.25 94.675781 L 329.132812 96.226562 L 330.988281 97.8125 L 332.816406 99.429688 L 334.613281 101.078125 L 336.382812 102.753906 L 338.121094 104.464844 L 339.832031 106.207031 L 341.511719 107.976562 L 343.160156 109.773438 L 344.777344 111.601562 L 346.359375 113.457031 L 347.910156 115.335938 L 349.429688 117.246094 L 350.914062 119.179688 L 352.367188 121.140625 L 353.78125 123.128906 L 355.164062 125.140625 L 356.511719 127.171875 L 357.820312 129.230469 L 359.097656 131.308594 L 360.332031 133.410156 L 361.535156 135.535156 L 362.699219 137.679688 L 363.824219 139.84375 L 364.914062 142.023438 L 365.964844 144.226562 L 366.976562 146.445312 L 367.949219 148.683594 L 368.882812 150.9375 L 369.777344 153.207031 L 370.628906 155.492188 L 371.445312 157.792969 L 372.21875 160.105469 L 372.953125 162.429688 L 373.644531 164.769531 L 374.296875 167.121094 L 374.90625 169.480469 L 375.476562 171.855469 L 376.003906 174.234375 L 376.492188 176.625 L 376.933594 179.023438 L 377.339844 181.429688 L 377.699219 183.84375 L 378.015625 186.261719 L 378.292969 188.683594 L 378.527344 191.113281 L 378.71875 193.542969 L 378.867188 195.980469 L 378.972656 198.417969 L 379.039062 200.855469 L 379.058594 203.292969 L 379.039062 205.734375 L 378.972656 208.171875 L 378.867188 210.609375 L 378.71875 213.042969 L 378.527344 215.476562 L 378.292969 217.902344 L 378.015625 220.328125 L 377.699219 222.746094 L 377.339844 225.15625 L 376.933594 227.5625 L 376.492188 229.960938 L 376.003906 232.351562 L 375.476562 234.734375 L 374.90625 237.105469 L 374.296875 239.46875 L 373.644531 241.820312 L 372.953125 244.15625 L 372.21875 246.484375 L 371.445312 248.796875 L 370.628906 251.097656 L 369.777344 253.382812 L 368.882812 255.652344 L 367.949219 257.90625 L 366.976562 260.140625 L 365.964844 262.359375 L 364.914062 264.5625 L 363.824219 266.746094 L 362.699219 268.910156 L 361.535156 271.054688 L 360.332031 273.175781 L 359.097656 275.277344 L 357.820312 277.359375 L 356.511719 279.414062 L 355.164062 281.449219 L 353.78125 283.460938 L 352.367188 285.445312 L 350.914062 287.40625 L 349.429688 289.34375 L 347.910156 291.25 L 346.359375 293.132812 L 344.777344 294.988281 L 343.160156 296.816406 L 341.511719 298.613281 L 339.832031 300.382812 L 338.121094 302.121094 L 336.382812 303.832031 L 334.613281 305.511719 L 332.816406 307.160156 L 330.988281 308.777344 L 329.132812 310.359375 L 327.25 311.910156 L 325.34375 313.429688 L 323.40625 314.914062 L 321.445312 316.367188 L 319.460938 317.78125 L 317.449219 319.164062 L 315.414062 320.511719 L 313.359375 321.820312 L 311.277344 323.097656 L 309.175781 324.332031 L 307.054688 325.535156 L 304.910156 326.699219 L 302.746094 327.824219 L 300.5625 328.914062 L 298.359375 329.964844 L 296.140625 330.976562 L 293.90625 331.949219 L 291.652344 332.882812 L 289.382812 333.777344 L 287.097656 334.628906 L 284.796875 335.445312 L 282.484375 336.21875 L 280.15625 336.953125 L 277.820312 337.644531 L 275.46875 338.296875 L 273.105469 338.90625 L 270.734375 339.476562 L 268.351562 340.003906 L 265.960938 340.492188 L 263.5625 340.933594 L 261.15625 341.339844 L 258.746094 341.699219 L 256.328125 342.015625 L 253.902344 342.292969 L 251.476562 342.527344 L 249.042969 342.71875 L 246.609375 342.867188 L 244.171875 342.972656 L 241.734375 343.039062 L 239.292969 343.058594 L 236.855469 343.039062 L 234.417969 342.972656 L 231.980469 342.867188 L 229.542969 342.71875 L 227.113281 342.527344 L 224.683594 342.292969 L 222.261719 342.015625 L 219.84375 341.699219 L 217.429688 341.339844 L 215.023438 340.933594 L 212.625 340.492188 L 210.234375 340.003906 L 207.855469 339.476562 L 205.480469 338.90625 L 203.121094 338.296875 L 200.769531 337.644531 L 198.429688 336.953125 L 196.105469 336.21875 L 193.792969 335.445312 L 191.492188 334.628906 L 189.207031 333.777344 L 186.9375 332.882812 L 184.683594 331.949219 L 182.445312 330.976562 L 180.226562 329.964844 L 178.023438 328.914062 L 175.84375 327.824219 L 173.679688 326.699219 L 171.535156 325.535156 L 169.410156 324.332031 L 167.308594 323.097656 L 165.230469 321.820312 L 163.171875 320.511719 L 161.140625 319.164062 L 159.128906 317.78125 L 157.140625 316.367188 L 155.179688 314.914062 L 153.246094 313.429688 L 151.335938 311.910156 L 149.457031 310.359375 L 147.601562 308.777344 L 145.773438 307.160156 L 143.976562 305.511719 L 142.207031 303.832031 L 140.464844 302.121094 L 138.753906 300.382812 L 137.078125 298.613281 L 135.429688 296.816406 L 133.8125 294.988281 L 132.226562 293.132812 L 130.675781 291.25 L 129.15625 289.34375 L 127.671875 287.40625 L 126.222656 285.445312 L 124.804688 283.460938 L 123.425781 281.449219 L 122.078125 279.414062 L 120.765625 277.359375 L 119.492188 275.277344 L 118.253906 273.175781 L 117.054688 271.054688 L 115.890625 268.910156 L 114.761719 266.746094 L 113.675781 264.5625 L 112.625 262.359375 L 111.613281 260.140625 L 110.640625 257.90625 L 109.707031 255.652344 L 108.8125 253.382812 L 107.957031 251.097656 L 107.144531 248.796875 L 106.371094 246.484375 L 105.636719 244.15625 L 104.945312 241.820312 L 104.292969 239.46875 L 103.679688 237.105469 L 103.113281 234.734375 L 102.582031 232.351562 L 102.097656 229.960938 L 101.652344 227.5625 L 101.25 225.15625 L 100.890625 222.746094 L 100.570312 220.328125 L 100.296875 217.902344 L 100.0625 215.476562 L 99.871094 213.042969 L 99.722656 210.609375 L 99.613281 208.171875 L 99.550781 205.734375 L 99.53125 203.292969 L 99.550781 200.855469 L 99.613281 198.417969 L 99.722656 195.980469 L 99.871094 193.542969 L 100.0625 191.113281 L 100.296875 188.683594 L 100.570312 186.261719 L 100.890625 183.84375 L 101.25 181.429688 L 101.652344 179.023438 L 102.097656 176.625 L 102.582031 174.234375 L 103.113281 171.855469 L 103.679688 169.480469 L 104.292969 167.121094 L 104.945312 164.769531 L 105.636719 162.429688 L 106.371094 160.105469 L 107.144531 157.792969 L 107.957031 155.492188 L 108.8125 153.207031 L 109.707031 150.9375 L 110.640625 148.683594 L 111.613281 146.445312 L 112.625 144.226562 L 113.675781 142.023438 L 114.761719 139.84375 L 115.890625 137.679688 L 117.054688 135.535156 L 118.253906 133.410156 L 119.492188 131.308594 L 120.765625 129.230469 L 122.078125 127.171875 L 123.425781 125.140625 L 124.804688 123.128906 L 126.222656 121.140625 L 127.671875 119.179688 L 129.15625 117.246094 L 130.675781 115.335938 L 132.226562 113.457031 L 133.8125 111.601562 L 135.429688 109.773438 L 137.078125 107.976562 L 138.753906 106.207031 L 140.464844 104.464844 L 142.207031 102.753906 L 143.976562 101.078125 L 145.773438 99.429688 L 147.601562 97.8125 L 149.457031 96.226562 L 151.335938 94.675781 L 153.246094 93.15625 L 155.179688 91.671875 L 157.140625 90.222656 L 159.128906 88.804688 L 161.140625 87.425781 L 163.171875 86.078125 L 165.230469 84.765625 L 167.308594 83.492188 L 169.410156 82.253906 L 171.535156 81.054688 L 173.679688 79.890625 L 175.84375 78.761719 L 178.023438 77.675781 L 180.226562 76.625 L 182.445312 75.613281 L 184.683594 74.640625 L 186.9375 73.707031 L 189.207031 72.8125 L 191.492188 71.957031 L 193.792969 71.144531 L 196.105469 70.371094 L 198.429688 69.636719 L 200.769531 68.945312 L 203.121094 68.292969 L 205.480469 67.679688 L 207.855469 67.113281 L 210.234375 66.582031 L 212.625 66.097656 L 215.023438 65.652344 L 217.429688 65.25 L 219.84375 64.890625 L 222.261719 64.570312 L 224.683594 64.296875 L 227.113281 64.0625 L 229.542969 63.871094 L 231.980469 63.722656 L 234.417969 63.613281 L 236.855469 63.550781 Z M 239.292969 63.53125 "/>
<path fill="none" stroke-width="2.987539" stroke-linecap="round" stroke-linejoin="round" stroke="rgb(0%, 0%, 0%)" stroke-opacity="1" stroke-dasharray="11.950157 11.950157" stroke-miterlimit="10" d="M 455.292969 63.53125 L 457.734375 63.550781 L 460.171875 63.613281 L 462.609375 63.722656 L 465.042969 63.871094 L 467.476562 64.0625 L 469.902344 64.296875 L 472.328125 64.570312 L 474.746094 64.890625 L 477.15625 65.25 L 479.5625 65.652344 L 481.960938 66.097656 L 484.351562 66.582031 L 486.734375 67.113281 L 489.105469 67.679688 L 491.46875 68.292969 L 493.820312 68.945312 L 496.15625 69.636719 L 498.484375 70.371094 L 500.796875 71.144531 L 503.097656 71.957031 L 505.382812 72.8125 L 507.652344 73.707031 L 509.90625 74.640625 L 512.140625 75.613281 L 514.359375 76.625 L 516.5625 77.675781 L 518.746094 78.761719 L 520.910156 79.890625 L 523.054688 81.054688 L 525.175781 82.253906 L 527.277344 83.492188 L 529.359375 84.765625 L 531.414062 86.078125 L 533.449219 87.425781 L 535.460938 88.804688 L 537.445312 90.222656 L 539.40625 91.671875 L 541.34375 93.15625 L 543.25 94.675781 L 545.132812 96.226562 L 546.988281 97.8125 L 548.816406 99.429688 L 550.613281 101.078125 L 552.382812 102.753906 L 554.121094 104.464844 L 555.832031 106.207031 L 557.511719 107.976562 L 559.160156 109.773438 L 560.777344 111.601562 L 562.359375 113.457031 L 563.910156 115.335938 L 565.429688 117.246094 L 566.914062 119.179688 L 568.367188 121.140625 L 569.78125 123.128906 L 571.164062 125.140625 L 572.511719 127.171875 L 573.820312 129.230469 L 575.097656 131.308594 L 576.332031 133.410156 L 577.535156 135.535156 L 578.699219 137.679688 L 579.824219 139.84375 L 580.914062 142.023438 L 581.964844 144.226562 L 582.976562 146.445312 L 583.949219 148.683594 L 584.882812 150.9375 L 585.777344 153.207031 L 586.628906 155.492188 L 587.445312 157.792969 L 588.21875 160.105469 L 588.953125 162.429688 L 589.644531 164.769531 L 590.296875 167.121094 L 590.90625 169.480469 L 591.476562 171.855469 L 592.003906 174.234375 L 592.492188 176.625 L 592.933594 179.023438 L 593.339844 181.429688 L 593.699219 183.84375 L 594.015625 186.261719 L 594.292969 188.683594 L 594.527344 191.113281 L 594.71875 193.542969 L 594.867188 195.980469 L 594.972656 198.417969 L 595.039062 200.855469 L 595.058594 203.292969 L 595.039062 205.734375 L 594.972656 208.171875 L 594.867188 210.609375 L 594.71875 213.042969 L 594.527344 215.476562 L 594.292969 217.902344 L 594.015625 220.328125 L 593.699219 222.746094 L 593.339844 225.15625 L 592.933594 227.5625 L 592.492188 229.960938 L 592.003906 232.351562 L 591.476562 234.734375 L 590.90625 237.105469 L 590.296875 239.46875 L 589.644531 241.820312 L 588.953125 244.15625 L 588.21875 246.484375 L 587.445312 248.796875 L 586.628906 251.097656 L 585.777344 253.382812 L 584.882812 255.652344 L 583.949219 257.90625 L 582.976562 260.140625 L 581.964844 262.359375 L 580.914062 264.5625 L 579.824219 266.746094 L 578.699219 268.910156 L 577.535156 271.054688 L 576.332031 273.175781 L 575.097656 275.277344 L 573.820312 277.359375 L 572.511719 279.414062 L 571.164062 281.449219 L 569.78125 283.460938 L 568.367188 285.445312 L 566.914062 287.40625 L 565.429688 289.34375 L 563.910156 291.25 L 562.359375 293.132812 L 560.777344 294.988281 L 559.160156 296.816406 L 557.511719 298.613281 L 555.832031 300.382812 L 554.121094 302.121094 L 552.382812 303.832031 L 550.613281 305.511719 L 548.816406 307.160156 L 546.988281 308.777344 L 545.132812 310.359375 L 543.25 311.910156 L 541.34375 313.429688 L 539.40625 314.914062 L 537.445312 316.367188 L 535.460938 317.78125 L 533.449219 319.164062 L 531.414062 320.511719 L 529.359375 321.820312 L 527.277344 323.097656 L 525.175781 324.332031 L 523.054688 325.535156 L 520.910156 326.699219 L 518.746094 327.824219 L 516.5625 328.914062 L 514.359375 329.964844 L 512.140625 330.976562 L 509.90625 331.949219 L 507.652344 332.882812 L 505.382812 333.777344 L 503.097656 334.628906 L 500.796875 335.445312 L 498.484375 336.21875 L 496.15625 336.953125 L 493.820312 337.644531 L 491.46875 338.296875 L 489.105469 338.90625 L 486.734375 339.476562 L 484.351562 340.003906 L 481.960938 340.492188 L 479.5625 340.933594 L 477.15625 341.339844 L 474.746094 341.699219 L 472.328125 342.015625 L 469.902344 342.292969 L 467.476562 342.527344 L 465.042969 342.71875 L 462.609375 342.867188 L 460.171875 342.972656 L 457.734375 343.039062 L 455.292969 343.058594 L 452.855469 343.039062 L 450.417969 342.972656 L 447.980469 342.867188 L 445.542969 342.71875 L 443.113281 342.527344 L 440.683594 342.292969 L 438.261719 342.015625 L 435.84375 341.699219 L 433.429688 341.339844 L 431.023438 340.933594 L 428.625 340.492188 L 426.234375 340.003906 L 423.855469 339.476562 L 421.480469 338.90625 L 419.121094 338.296875 L 416.769531 337.644531 L 414.429688 336.953125 L 412.105469 336.21875 L 409.792969 335.445312 L 407.492188 334.628906 L 405.207031 333.777344 L 402.9375 332.882812 L 400.683594 331.949219 L 398.445312 330.976562 L 396.226562 329.964844 L 394.023438 328.914062 L 391.84375 327.824219 L 389.679688 326.699219 L 387.535156 325.535156 L 385.410156 324.332031 L 383.308594 323.097656 L 381.230469 321.820312 L 379.171875 320.511719 L 377.140625 319.164062 L 375.128906 317.78125 L 373.140625 316.367188 L 371.179688 314.914062 L 369.246094 313.429688 L 367.335938 311.910156 L 365.457031 310.359375 L 363.601562 308.777344 L 361.773438 307.160156 L 359.976562 305.511719 L 358.207031 303.832031 L 356.464844 302.121094 L 354.753906 300.382812 L 353.078125 298.613281 L 351.429688 296.816406 L 349.8125 294.988281 L 348.226562 293.132812 L 346.675781 291.25 L 345.15625 289.34375 L 343.671875 287.40625 L 342.222656 285.445312 L 340.804688 283.460938 L 339.425781 281.449219 L 338.078125 279.414062 L 336.765625 277.359375 L 335.492188 275.277344 L 334.253906 273.175781 L 333.054688 271.054688 L 331.890625 268.910156 L 330.761719 266.746094 L 329.675781 264.5625 L 328.625 262.359375 L 327.613281 260.140625 L 326.640625 257.90625 L 325.707031 255.652344 L 324.8125 253.382812 L 323.957031 251.097656 L 323.144531 248.796875 L 322.371094 246.484375 L 321.636719 244.15625 L 320.945312 241.820312 L 320.292969 239.46875 L 319.679688 237.105469 L 319.113281 234.734375 L 318.582031 232.351562 L 318.097656 229.960938 L 317.652344 227.5625 L 317.25 225.15625 L 316.890625 222.746094 L 316.570312 220.328125 L 316.296875 217.902344 L 316.0625 215.476562 L 315.871094 213.042969 L 315.722656 210.609375 L 315.613281 208.171875 L 315.550781 205.734375 L 315.53125 203.292969 L 315.550781 200.855469 L 315.613281 198.417969 L 315.722656 195.980469 L 315.871094 193.542969 L 316.0625 191.113281 L 316.296875 188.683594 L 316.570312 186.261719 L 316.890625 183.84375 L 317.25 181.429688 L 317.652344 179.023438 L 318.097656 176.625 L 318.582031 174.234375 L 319.113281 171.855469 L 319.679688 169.480469 L 320.292969 167.121094 L 320.945312 164.769531 L 321.636719 162.429688 L 322.371094 160.105469 L 323.144531 157.792969 L 323.957031 155.492188 L 324.8125 153.207031 L 325.707031 150.9375 L 326.640625 148.683594 L 327.613281 146.445312 L 328.625 144.226562 L 329.675781 142.023438 L 330.761719 139.84375 L 331.890625 137.679688 L 333.054688 135.535156 L 334.253906 133.410156 L 335.492188 131.308594 L 336.765625 129.230469 L 338.078125 127.171875 L 339.425781 125.140625 L 340.804688 123.128906 L 342.222656 121.140625 L 343.671875 119.179688 L 345.15625 117.246094 L 346.675781 115.335938 L 348.226562 113.457031 L 349.8125 111.601562 L 351.429688 109.773438 L 353.078125 107.976562 L 354.753906 106.207031 L 356.464844 104.464844 L 358.207031 102.753906 L 359.976562 101.078125 L 361.773438 99.429688 L 363.601562 97.8125 L 365.457031 96.226562 L 367.335938 94.675781 L 369.246094 93.15625 L 371.179688 91.671875 L 373.140625 90.222656 L 375.128906 88.804688 L 377.140625 87.425781 L 379.171875 86.078125 L 381.230469 84.765625 L 383.308594 83.492188 L 385.410156 82.253906 L 387.535156 81.054688 L 389.679688 79.890625 L 391.84375 78.761719 L 394.023438 77.675781 L 396.226562 76.625 L 398.445312 75.613281 L 400.683594 74.640625 L 402.9375 73.707031 L 405.207031 72.8125 L 407.492188 71.957031 L 409.792969 71.144531 L 412.105469 70.371094 L 414.429688 69.636719 L 416.769531 68.945312 L 419.121094 68.292969 L 421.480469 67.679688 L 423.855469 67.113281 L 426.234375 66.582031 L 428.625 66.097656 L 431.023438 65.652344 L 433.429688 65.25 L 435.84375 64.890625 L 438.261719 64.570312 L 440.683594 64.296875 L 443.113281 64.0625 L 445.542969 63.871094 L 447.980469 63.722656 L 450.417969 63.613281 L 452.855469 63.550781 Z M 455.292969 63.53125 "/>
<g fill="rgb(0%, 0%, 0%)" fill-opacity="1">
<use xlink:href="#glyph-0-0" x="56.132812" y="49.328125"/>
</g>
<g fill="rgb(0%, 0%, 0%)" fill-opacity="1">
<use xlink:href="#glyph-1-0" x="83.917969" y="283.445312"/>
</g>
<g fill="rgb(0%, 0%, 0%)" fill-opacity="1">
<use xlink:href="#glyph-1-1" x="598.507812" y="283.445312"/>
</g>
<g fill="rgb(81.176471%, 35.294118%, 0%)" fill-opacity="1">
<use xlink:href="#glyph-2-0" x="319.433594" y="210.519531"/>
</g>
<g fill="rgb(81.176471%, 35.294118%, 0%)" fill-opacity="1">
<use xlink:href="#glyph-3-0" x="334.84375" y="210.519531"/>
</g>
<g fill="rgb(81.176471%, 35.294118%, 0%)" fill-opacity="1">
<use xlink:href="#glyph-2-1" x="340.175781" y="210.519531"/>
</g>
<g fill="rgb(81.176471%, 35.294118%, 0%)" fill-opacity="1">
<use xlink:href="#glyph-3-0" x="355.589844" y="210.519531"/>
</g>
<g fill="rgb(81.176471%, 35.294118%, 0%)" fill-opacity="1">
<use xlink:href="#glyph-2-2" x="360.921875" y="210.519531"/>
</g>
</svg>
